<?xml version="1.0" standalone="no"?>
<!DOCTYPE svg PUBLIC "-//W3C//DTD SVG 20010904//EN"
 "http://www.w3.org/TR/2001/REC-SVG-20010904/DTD/svg10.dtd">
<svg version="1.0" xmlns="http://www.w3.org/2000/svg"
 width="300.000000pt" height="300.000000pt" viewBox="0 0 300.000000 300.000000"
 preserveAspectRatio="xMidYMid meet">
<metadata>
Created by potrace 1.10, written by Peter Selinger 2001-2011
</metadata>
<g transform="translate(0.000000,300.000000) scale(0.100000,-0.100000)"
fill="#000000" stroke="none">
<path d="M640 2455 c-22 -27 -23 -115 -2 -160 l20 -40 -5 60 c-2 34 1 66 7 75
17 25 53 -25 48 -68 -4 -30 -3 -32 9 -16 19 26 16 53 -15 108 -30 56 -43 64
-62 41z"/>
<path d="M565 2314 c-11 -8 -28 -13 -37 -10 -30 7 -20 -10 20 -38 21 -14 51
-26 68 -26 l29 1 -32 14 c-39 17 -40 21 -11 52 20 22 20 23 2 23 -10 0 -28 -7
-39 -16z"/>
<path d="M714 2279 c-10 -12 -41 -33 -69 -46 -46 -21 -47 -23 -15 -17 42 7 96
38 104 61 10 25 1 25 -20 2z"/>
<path d="M1315 2286 c-27 -7 -81 -28 -118 -46 -66 -31 -73 -32 -150 -27 -45 4
-95 9 -112 12 -51 10 -6 -11 54 -25 75 -18 165 -8 229 24 118 60 215 55 365
-16 96 -46 137 -84 168 -155 23 -54 24 -73 4 -73 -22 0 -90 -65 -119 -115 -48
-81 -112 -108 -152 -64 -27 30 -25 189 5 318 11 52 19 96 17 98 -2 3 -7 -4
-10 -14 -61 -197 -82 -373 -52 -431 18 -36 49 -47 100 -38 39 7 84 53 139 138
33 52 79 98 98 98 19 0 93 -77 148 -154 33 -45 73 -91 90 -104 37 -27 103 -52
137 -52 16 0 24 -6 24 -17 0 -11 3 -14 8 -7 16 24 40 22 66 -5 23 -24 26 -36
30 -123 4 -98 37 -253 63 -298 l14 -25 -6 25 c-27 113 -37 177 -41 254 -2 49
-9 95 -15 102 -8 10 -8 14 0 14 6 0 -6 21 -26 48 -54 71 -86 148 -91 220 -2
34 -7 62 -10 62 -3 0 -14 -7 -24 -17 -10 -9 -18 -11 -18 -6 0 16 22 31 55 36
28 4 28 4 -6 6 -21 0 -42 -5 -49 -14 -19 -23 8 -118 52 -187 21 -32 38 -61 38
-63 0 -12 -39 -4 -50 10 -7 9 -21 13 -31 10 -43 -14 -120 47 -186 149 -24 38
-68 92 -97 121 -30 30 -60 72 -70 98 -35 92 -114 157 -257 211 -84 31 -152 38
-214 22z"/>
<path d="M782 2248 c-15 -19 -32 -88 -32 -131 0 -86 61 -154 178 -200 37 -15
92 -43 122 -62 30 -19 59 -34 64 -32 43 14 -30 69 -159 118 -156 60 -185 88
-185 178 0 50 1 51 29 51 28 0 91 42 91 60 0 9 -62 30 -86 30 -6 0 -16 -6 -22
-12z"/>
<path d="M2060 2233 c-50 -8 -88 -24 -106 -45 l-19 -20 40 21 c48 25 74 28 55
7 -6 -8 -17 -14 -23 -12 -7 1 -9 1 -4 -1 11 -7 8 -23 -4 -20 -6 1 -13 -6 -14
-16 -4 -21 11 -13 42 24 13 15 41 34 63 43 22 9 40 18 40 21 0 5 -31 5 -70 -2z"/>
<path d="M1871 2196 c-6 -7 -25 -16 -41 -20 -45 -9 -36 -22 12 -18 35 4 45 1
62 -21 21 -25 75 -50 62 -28 -4 6 -12 11 -17 11 -6 0 -24 13 -40 29 -31 31
-24 49 15 42 11 -1 16 2 12 8 -10 16 -51 14 -65 -3z"/>
<path d="M2049 2173 c-13 -15 -17 -22 -8 -15 8 6 31 18 50 26 32 14 32 15 8
16 -16 0 -35 -11 -50 -27z"/>
<path d="M1166 2159 c-18 -26 -21 -43 -6 -34 5 3 26 2 45 -4 19 -5 35 -8 35
-6 0 2 -13 18 -29 35 l-29 32 -16 -23z"/>
<path d="M837 2128 c-7 -20 12 -48 27 -42 7 3 16 -2 19 -10 4 -9 12 -16 18
-16 7 0 0 11 -15 25 -15 14 -31 25 -36 25 -5 0 -7 7 -4 15 4 8 4 15 1 15 -3 0
-7 -6 -10 -12z"/>
<path d="M1991 2112 c-13 -25 -14 -72 -1 -92 7 -11 11 -9 19 13 13 34 14 67 2
86 -7 11 -11 10 -20 -7z"/>
<path d="M2133 2013 c-23 -9 -14 -24 10 -18 32 8 74 -10 108 -46 16 -17 29
-26 29 -19 0 7 -17 30 -39 51 -37 38 -71 48 -108 32z"/>
<path d="M2095 1960 c-9 -30 4 -45 21 -23 7 10 14 24 14 31 0 20 -28 14 -35
-8z"/>
<path d="M874 1912 c3 -6 68 -47 145 -91 76 -45 145 -89 153 -99 9 -9 28 -55
43 -102 15 -47 34 -97 42 -112 15 -31 40 -40 28 -10 -5 9 -25 67 -46 127 l-37
110 -114 63 c-62 35 -137 77 -166 93 -30 17 -51 26 -48 21z"/>
<path d="M2291 1895 c0 -5 6 -32 14 -59 8 -27 15 -78 15 -113 0 -40 4 -63 11
-63 19 0 5 148 -19 200 -11 25 -21 41 -21 35z"/>
<path d="M2211 1851 c-15 -27 10 -104 59 -179 22 -34 42 -62 46 -62 3 0 -2 12
-12 28 -54 82 -68 117 -68 174 -1 60 -8 71 -25 39z"/>
<path d="M1019 1656 c-40 -86 -42 -158 -5 -213 15 -21 34 -63 43 -93 9 -30 18
-49 21 -42 6 19 -17 131 -34 164 -34 66 6 35 46 -35 l28 -50 21 64 20 64 1
-45 c1 -25 5 -54 9 -65 7 -16 2 -23 -23 -35 -18 -9 -39 -32 -51 -55 -11 -22
-37 -56 -57 -76 -27 -26 -38 -46 -38 -65 l0 -29 20 32 c25 42 54 57 80 43 26
-14 58 -5 62 18 2 9 -2 32 -9 50 -18 43 -2 76 32 70 21 -4 22 -2 15 21 -5 14
-11 64 -14 111 -6 99 -26 164 -63 202 -45 47 -69 38 -104 -36z m92 -9 c19 -26
41 -117 28 -117 -5 0 -9 -7 -9 -15 0 -26 -25 -27 -64 -3 -35 22 -36 25 -32 66
6 45 31 92 50 92 6 0 18 -11 27 -23z m19 -376 c0 -22 -16 -36 -24 -22 -8 12 3
41 15 41 5 0 9 -9 9 -19z"/>
<path d="M1585 1702 c-41 -25 -59 -48 -45 -57 13 -8 42 14 35 26 -6 8 26 29
45 29 6 0 8 -5 4 -12 -4 -7 -3 -8 4 -4 16 10 15 36 0 36 -7 0 -26 -8 -43 -18z"/>
<path d="M1644 1669 c-5 -9 1 -10 22 -5 28 6 28 6 9 -9 -18 -14 -17 -15 15
-10 l35 6 -25 -16 -25 -16 28 6 c27 5 38 -9 15 -18 -8 -3 -6 -6 5 -6 10 -1 35
-19 56 -41 21 -22 46 -40 57 -41 18 0 18 -1 -1 -9 -15 -6 -9 -7 20 -6 51 2 65
11 65 42 0 27 -38 51 -64 41 -25 -10 -19 -25 8 -20 29 6 43 -14 24 -34 -13
-13 -19 -13 -50 0 -20 8 -44 27 -54 43 -56 82 -120 125 -140 93z"/>
<path d="M1543 1630 c-47 -19 -52 -70 -23 -265 6 -38 11 -82 10 -97 0 -31 27
-104 36 -95 3 3 1 14 -4 24 -8 16 -20 101 -27 193 -1 19 -7 57 -14 84 -12 49
-7 100 11 123 25 32 89 -36 113 -118 17 -63 14 -61 100 -74 22 -4 51 -13 63
-22 30 -19 61 -87 62 -134 0 -46 12 -55 96 -76 81 -19 92 -26 96 -61 3 -25 5
-23 27 23 20 40 25 68 27 140 1 50 9 112 18 139 18 55 21 142 6 181 -21 54
-68 45 -143 -28 -30 -29 -70 -61 -90 -72 -34 -18 -40 -18 -79 -5 -24 8 -43 20
-43 27 0 6 -4 15 -9 20 -5 5 -6 3 -2 -4 5 -9 -1 -13 -21 -13 -16 0 -38 -6 -49
-14 -14 -11 -22 -11 -32 -3 -11 8 -8 14 10 31 13 12 19 18 14 14 -4 -3 -15 -4
-24 -1 -11 5 -13 2 -8 -8 4 -8 -2 -3 -13 11 -25 31 -27 44 -3 35 38 -16 55
-15 25 1 -27 13 -36 14 -48 4 -8 -7 -15 -8 -15 -4 0 5 -12 17 -27 27 l-28 18
27 -4 c15 -2 25 0 22 4 -6 11 -32 10 -61 -1z m578 -50 c11 -39 10 -94 -2 -150
-11 -54 -30 -65 -49 -29 -9 16 -18 19 -39 14 -33 -7 -61 15 -61 47 0 29 35 83
78 118 43 35 63 35 73 0z m-315 -116 c26 -11 53 -14 81 -10 39 5 45 3 55 -19
13 -30 42 -50 85 -59 37 -8 53 -43 53 -115 0 -67 -8 -75 -59 -61 -22 6 -41 15
-41 20 0 6 4 10 8 10 4 0 9 14 10 30 2 29 1 30 -38 30 -25 0 -39 -4 -35 -10 3
-5 0 -10 -9 -10 -8 0 -16 -6 -19 -12 -2 -7 -8 -10 -12 -6 -4 4 5 19 20 34 23
23 32 26 68 21 38 -5 40 -4 23 9 -11 8 -36 14 -55 14 -29 0 -43 9 -83 50 -27
28 -53 48 -58 45 -5 -3 -11 -1 -15 5 -3 5 -19 10 -34 10 -35 0 -62 26 -34 33
34 9 50 7 89 -9z m184 -199 c0 -19 -54 -47 -75 -39 -13 5 -7 12 27 30 23 12
44 23 46 23 1 1 2 -6 2 -14z"/>
<path d="M2251 1568 c1 -24 5 -54 9 -68 6 -19 8 -9 9 37 1 34 -3 65 -9 68 -6
4 -10 -11 -9 -37z"/>
<path d="M1254 1436 c-41 -41 -43 -57 -6 -74 15 -7 39 -29 55 -49 28 -37 39
-34 12 4 -13 18 -13 27 0 78 9 32 18 62 21 66 3 5 -7 9 -21 9 -17 0 -39 -12
-61 -34z"/>
<path d="M1337 1413 c-20 -19 16 -168 51 -214 11 -13 29 -53 41 -89 37 -112
115 -204 191 -225 20 -5 18 -2 -10 15 -86 54 -151 150 -166 246 -3 24 -12 48
-20 55 -19 15 -52 108 -60 168 -6 49 -13 59 -27 44z"/>
<path d="M1653 1289 c9 -5 17 -16 17 -24 0 -19 32 -35 64 -33 16 2 26 8 26 19
0 28 -34 49 -81 49 -35 -1 -40 -3 -26 -11z"/>
<path d="M984 1210 c-47 -71 -43 -161 11 -225 l26 -30 -22 44 c-33 70 -36 146
-6 204 30 57 26 60 -9 7z"/>
<path d="M1347 1175 c4 -16 8 -51 7 -77 -1 -28 3 -45 9 -41 13 8 3 121 -12
136 -10 10 -11 6 -4 -18z"/>
<path d="M1778 1160 c-5 -29 -2 -39 18 -57 13 -13 26 -23 29 -23 16 0 45 44
44 68 -1 22 -2 23 -6 5 -9 -44 -70 -36 -75 11 l-3 31 -7 -35z"/>
<path d="M1387 1086 c3 -25 1 -58 -5 -75 -15 -43 -4 -39 14 6 10 22 13 49 9
69 -9 50 -23 50 -18 0z"/>
<path d="M1606 1090 c-28 -11 -57 -27 -65 -36 -12 -11 -3 -10 29 6 58 29 97
40 116 33 13 -5 13 -7 2 -14 -7 -5 -17 -9 -23 -9 -5 0 -3 5 5 10 27 17 0 11
-38 -10 -41 -21 -91 -59 -79 -60 4 0 26 14 49 30 59 43 67 37 19 -15 -57 -62
-52 -67 8 -7 27 27 63 54 80 61 17 8 31 17 31 22 0 16 -83 9 -134 -11z"/>
<path d="M1910 1100 c0 -5 14 -17 31 -26 17 -8 52 -34 77 -57 41 -38 44 -39
24 -11 -12 17 -33 39 -48 48 -14 10 -23 20 -20 24 4 3 34 -14 69 -38 35 -24
53 -33 42 -21 -31 35 -103 74 -123 66 -13 -5 -14 -3 -5 5 13 14 59 2 126 -32
20 -10 37 -16 37 -13 0 3 -28 19 -62 35 -62 30 -148 41 -148 20z"/>
<path d="M1301 1078 c-1 -32 -52 -78 -89 -79 l-27 -1 30 -9 c25 -7 22 -8 -17
-5 -32 2 -64 14 -98 36 -28 18 -53 30 -56 28 -7 -8 98 -76 129 -84 28 -6 90
13 82 26 -2 4 7 12 20 18 26 12 40 48 32 79 -3 12 -5 10 -6 -9z"/>
<path d="M1214 1071 c16 -18 16 -20 -5 -39 l-21 -21 21 6 c11 3 21 12 21 19 0
8 12 19 26 25 32 12 30 14 -20 22 -37 6 -38 5 -22 -12z"/>
<path d="M1780 1050 c-37 -8 -32 -10 43 -13 26 -2 53 1 60 5 8 5 5 8 -8 8 -11
0 -29 2 -40 4 -11 2 -36 0 -55 -4z"/>
</g>
</svg>
